<svg width="13" height="13" viewBox="0 0 13 13" fill="none" xmlns="http://www.w3.org/2000/svg">
<g clip-path="url(#clip0_54_150)">
<path d="M6.50001 3.79167C6.50001 3.21703 6.27174 2.66593 5.86541 2.2596C5.45908 1.85327 4.90798 1.625 4.33334 1.625H1.08334V9.75H4.87501C5.30599 9.75 5.71931 9.9212 6.02406 10.226C6.32881 10.5307 6.50001 10.944 6.50001 11.375M6.50001 3.79167V11.375M6.50001 3.79167C6.50001 3.21703 6.72828 2.66593 7.13461 2.2596C7.54094 1.85327 8.09204 1.625 8.66668 1.625H11.9167V9.75H8.12501C7.69403 9.75 7.28071 9.9212 6.97596 10.226C6.67121 10.5307 6.50001 10.944 6.50001 11.375" stroke="#141218" stroke-width="2" stroke-linecap="round" stroke-linejoin="round"/>
</g>
<defs>
<clipPath id="clip0_54_150">
<rect width="13" height="13" fill="white"/>
</clipPath>
</defs>
</svg>
