<svg width="13" height="12" viewBox="0 0 13 12" fill="none" xmlns="http://www.w3.org/2000/svg">
<path d="M6.5 3.20779C6.5 2.62569 6.26876 2.06744 5.85716 1.65583C5.44555 1.24423 4.8873 1.01299 4.3052 1.01299H1.01299V9.24351H4.8539C5.29047 9.24351 5.70917 9.41694 6.01787 9.72564C6.32657 10.0343 6.5 10.453 6.5 10.8896M6.5 3.20779V10.8896M6.5 3.20779C6.5 2.62569 6.73124 2.06744 7.14285 1.65583C7.55445 1.24423 8.11271 1.01299 8.69481 1.01299H11.987V9.24351H8.14611C7.70953 9.24351 7.29084 9.41694 6.98214 9.72564C6.67343 10.0343 6.5 10.453 6.5 10.8896" stroke="#141218" stroke-width="2" stroke-linecap="round" stroke-linejoin="round"/>
</svg>
