<svg width="17" height="14" viewBox="0 0 17 14" fill="none" xmlns="http://www.w3.org/2000/svg">
<path d="M8.5 3.45475C8.5 2.80371 8.18393 2.17933 7.62132 1.71898C7.05871 1.25862 6.29565 1 5.5 1H1V10.2053H6.25C6.84674 10.2053 7.41903 10.3993 7.84099 10.7445C8.26295 11.0898 8.5 11.5581 8.5 12.0464M8.5 3.45475V12.0464M8.5 3.45475C8.5 2.80371 8.81607 2.17933 9.37868 1.71898C9.94129 1.25862 10.7044 1 11.5 1H16V10.2053H10.75C10.1533 10.2053 9.58097 10.3993 9.15901 10.7445C8.73705 11.0898 8.5 11.5581 8.5 12.0464" stroke="#1E1E1E" stroke-width="2" stroke-linecap="round" stroke-linejoin="round"/>
</svg>
