<svg width="13" height="13" viewBox="0 0 13 13" fill="none" xmlns="http://www.w3.org/2000/svg">
<path d="M10.6167 11.375L7.20417 7.9625C6.93333 8.17917 6.62188 8.3507 6.26979 8.47708C5.91771 8.60347 5.54306 8.66667 5.14583 8.66667C4.16181 8.66667 3.32899 8.32587 2.6474 7.64427C1.9658 6.96267 1.625 6.12986 1.625 5.14583C1.625 4.16181 1.9658 3.32899 2.6474 2.6474C3.32899 1.9658 4.16181 1.625 5.14583 1.625C6.12986 1.625 6.96267 1.9658 7.64427 2.6474C8.32587 3.32899 8.66667 4.16181 8.66667 5.14583C8.66667 5.54306 8.60347 5.91771 8.47708 6.26979C8.3507 6.62188 8.17917 6.93333 7.9625 7.20417L11.375 10.6167L10.6167 11.375ZM5.14583 7.58333C5.82292 7.58333 6.39844 7.34635 6.8724 6.8724C7.34635 6.39844 7.58333 5.82292 7.58333 5.14583C7.58333 4.46875 7.34635 3.89323 6.8724 3.41927C6.39844 2.94531 5.82292 2.70833 5.14583 2.70833C4.46875 2.70833 3.89323 2.94531 3.41927 3.41927C2.94531 3.89323 2.70833 4.46875 2.70833 5.14583C2.70833 5.82292 2.94531 6.39844 3.41927 6.8724C3.89323 7.34635 4.46875 7.58333 5.14583 7.58333Z" fill="#FEF7FF"/>
</svg>
